<svg width="68" height="66" viewBox="0 0 68 66" fill="none" xmlns="http://www.w3.org/2000/svg">
<path d="M13.1755 56.1021L8.4729 4.125H60.1634L55.4546 56.0938L34.2867 61.875L13.1755 56.1021Z" fill="#1572B6"/>
<path d="M34.3181 57.4572L51.4241 52.7856L55.4482 8.37585H34.3181V57.4572Z" fill="#33A9DC"/>
<path d="M34.3181 27.2065H42.8816L43.472 20.6787H34.3181V14.3035H50.5447L50.3897 16.0133L48.8006 33.5817H34.3181V27.2065Z" fill="white"/>
<path d="M34.3578 43.7621L34.3285 43.7704L27.1218 41.8523L26.6612 36.7682H20.1643L21.0709 46.7775L34.3264 50.4034L34.3578 50.3951V43.7621Z" fill="#EBEBEB"/>
<path d="M42.3309 33.3114L41.552 41.8481L34.3348 43.7662V50.3992L47.6008 46.7775L47.6992 45.7008L48.8236 33.3114H42.3309Z" fill="white"/>
<path d="M34.3412 14.3035V20.6787H18.7092L18.5794 19.2452L18.2842 16.0133L18.1293 14.3035H34.3412ZM34.3181 27.2065V33.5817H27.2015L27.0717 32.1482L26.7786 28.9163L26.6236 27.2065H34.3181Z" fill="#EBEBEB"/>
</svg>
