<svg width="65" height="64" viewBox="0 0 65 64" fill="none" xmlns="http://www.w3.org/2000/svg">
<g clip-path="url(#clip0_24_5294)">
<path d="M64.8181 49.59C62.4901 50.182 61.0501 49.616 59.7581 47.676L50.5701 34.964L49.2421 33.204L38.5121 47.718C37.2861 49.464 36.0001 50.224 33.7121 49.606L47.4521 31.162L34.6601 14.502C36.8601 14.074 38.3801 14.292 39.7301 16.262L49.2601 29.132L58.8601 16.332C60.0901 14.586 61.4121 13.922 63.6201 14.566L58.6601 21.142L51.9401 29.892C51.1401 30.892 51.2501 31.576 51.9861 32.542L64.8181 49.59ZM0.834115 30.854L1.95812 25.326C5.01812 14.386 17.5581 9.84002 26.2061 16.6C31.2601 20.576 32.5161 26.2 32.2661 32.5H3.77812C3.35012 43.84 11.5121 50.684 21.9181 47.192C25.5681 45.966 27.7181 43.108 28.7941 39.532C29.3401 37.74 30.2441 37.46 31.9281 37.972C31.0681 42.444 29.1281 46.18 25.0281 48.518C18.9021 52.018 10.1581 50.886 5.55812 46.022C2.81811 43.2 1.68612 39.624 1.17812 35.8C1.09812 35.168 0.938115 34.566 0.818115 33.96C0.828782 32.9254 0.834115 31.8907 0.834115 30.856V30.854ZM3.83012 30.094H29.5741C29.4061 21.894 24.3001 16.07 17.3221 16.02C9.66212 15.96 4.16212 21.646 3.83012 30.094Z" fill="#F9FAFB"/>
</g>
<defs>
<clipPath id="clip0_24_5294">
<rect width="64" height="64" fill="white" transform="translate(0.818115)"/>
</clipPath>
</defs>
</svg>
