<svg width="36" height="53" viewBox="0 0 36 53" fill="none" xmlns="http://www.w3.org/2000/svg">
<g clip-path="url(#clip0_24_5326)">
<path d="M18.0278 26.5C18.0278 24.1572 18.9497 21.9104 20.5906 20.2538C22.2316 18.5973 24.4572 17.6666 26.7778 17.6666C29.0985 17.6666 31.3241 18.5973 32.965 20.2538C34.606 21.9104 35.5278 24.1572 35.5278 26.5C35.5278 28.8427 34.606 31.0895 32.965 32.7461C31.3241 34.4026 29.0985 35.3333 26.7778 35.3333C24.4572 35.3333 22.2316 34.4026 20.5906 32.7461C18.9497 31.0895 18.0278 28.8427 18.0278 26.5Z" fill="#1ABCFE"/>
<path d="M0.527832 44.1667C0.527832 41.824 1.4497 39.5772 3.09065 37.9206C4.73159 36.264 6.95719 35.3334 9.27783 35.3334H18.0278V44.1667C18.0278 46.5095 17.106 48.7562 15.465 50.4128C13.8241 52.0694 11.5985 53 9.27783 53C6.95719 53 4.73159 52.0694 3.09065 50.4128C1.4497 48.7562 0.527832 46.5095 0.527832 44.1667Z" fill="#0ACF83"/>
<path d="M18.0278 0V17.6667H26.7778C29.0985 17.6667 31.3241 16.736 32.965 15.0794C34.606 13.4229 35.5278 11.1761 35.5278 8.83333C35.5278 6.49059 34.606 4.24379 32.965 2.58722C31.3241 0.930652 29.0985 0 26.7778 0L18.0278 0Z" fill="#FF7262"/>
<path d="M0.527832 8.83333C0.527832 11.1761 1.4497 13.4229 3.09065 15.0794C4.73159 16.736 6.95719 17.6667 9.27783 17.6667H18.0278V0H9.27783C6.95719 0 4.73159 0.930652 3.09065 2.58722C1.4497 4.24379 0.527832 6.49059 0.527832 8.83333Z" fill="#F24E1E"/>
<path d="M0.527832 26.5C0.527832 28.8427 1.4497 31.0895 3.09065 32.7461C4.73159 34.4026 6.95719 35.3333 9.27783 35.3333H18.0278V17.6666H9.27783C6.95719 17.6666 4.73159 18.5973 3.09065 20.2538C1.4497 21.9104 0.527832 24.1572 0.527832 26.5Z" fill="#A259FF"/>
</g>
<defs>
<clipPath id="clip0_24_5326">
<rect width="35" height="53" fill="white" transform="translate(0.527832)"/>
</clipPath>
</defs>
</svg>
