<svg width="65" height="65" viewBox="0 0 65 65" fill="none" xmlns="http://www.w3.org/2000/svg">
<path d="M56.2945 29.9666L34.5611 8.23329C33.8945 7.56663 32.9611 7.16663 32.0278 7.16663C31.0945 7.16663 30.1611 7.56663 29.4945 8.23329L24.8278 12.9L30.2945 18.3666C30.8278 18.1 31.3611 17.9666 32.0278 17.9666C34.2945 17.9666 36.0278 19.7 36.0278 21.9666C36.0278 22.6333 35.8945 23.1666 35.6278 23.7L40.9611 29.0333C41.4945 28.7666 42.0278 28.6333 42.6945 28.6333C44.9611 28.6333 46.6945 30.3666 46.6945 32.6333C46.6945 34.9 44.9611 36.6333 42.6945 36.6333C40.4278 36.6333 38.6945 34.9 38.6945 32.6333C38.6945 31.9666 38.8278 31.4333 39.0945 30.9L33.7611 25.5666C33.6278 25.5666 33.4945 25.7 33.3611 25.7V39.5666C34.9611 40.1 36.0278 41.5666 36.0278 43.3C36.0278 45.5666 34.2945 47.3 32.0278 47.3C29.7611 47.3 28.0278 45.5666 28.0278 43.3C28.0278 41.5666 29.0945 40.1 30.6945 39.5666V25.5666C29.0945 25.0333 28.0278 23.5666 28.0278 21.8333C28.0278 21.1666 28.1611 20.6333 28.4278 20.1L22.9611 14.6333L7.76112 29.9666C7.09446 30.6333 6.69446 31.5666 6.69446 32.5C6.69446 33.4333 7.09446 34.3666 7.76112 35.0333L29.4945 56.7666C30.1611 57.4333 31.0945 57.8333 32.0278 57.8333C32.9611 57.8333 33.8945 57.4333 34.5611 56.7666L56.2945 35.0333C56.9611 34.3666 57.3611 33.4333 57.3611 32.5C57.3611 31.5666 56.9611 30.6333 56.2945 29.9666Z" fill="#F4511E"/>
</svg>
