<svg width="62" height="61" viewBox="0 0 62 61" fill="none" xmlns="http://www.w3.org/2000/svg">
<g clip-path="url(#clip0_24_5559)">
<path fill-rule="evenodd" clip-rule="evenodd" d="M30.5278 0C13.6766 0 0.027832 13.6487 0.027832 30.5C0.027832 43.9962 8.75846 55.3956 20.8822 59.4369C22.4072 59.7037 22.9791 58.7887 22.9791 57.9881C22.9791 57.2637 22.941 54.8619 22.941 52.3075C15.2778 53.7181 13.2953 50.4394 12.6853 48.7237C12.3422 47.8469 10.8553 45.14 9.55908 44.4156C8.49158 43.8438 6.96658 42.4331 9.52096 42.395C11.9228 42.3569 13.6385 44.6062 14.2103 45.5212C16.9553 50.1344 21.3397 48.8381 23.0935 48.0375C23.3603 46.055 24.161 44.7206 25.0378 43.9581C18.2516 43.1956 11.1603 40.565 11.1603 28.8987C11.1603 25.5819 12.3422 22.8369 14.2866 20.7019C13.9816 19.9394 12.9141 16.8131 14.5916 12.6194C14.5916 12.6194 17.146 11.8187 22.9791 15.7456C25.4191 15.0594 28.0116 14.7162 30.6041 14.7162C33.1966 14.7162 35.7891 15.0594 38.2291 15.7456C44.0622 11.7806 46.6166 12.6194 46.6166 12.6194C48.2941 16.8131 47.2266 19.9394 46.9216 20.7019C48.866 22.8369 50.0478 25.5437 50.0478 28.8987C50.0478 40.6031 42.9185 43.1956 36.1322 43.9581C37.2378 44.9112 38.191 46.7412 38.191 49.6006C38.191 53.68 38.1528 56.9587 38.1528 57.9881C38.1528 58.7887 38.7247 59.7419 40.2497 59.4369C46.3044 57.3927 51.5657 53.5013 55.293 48.3104C59.0203 43.1195 61.026 36.8905 61.0278 30.5C61.0278 13.6487 47.3791 0 30.5278 0Z" fill="#FFFEFE"/>
</g>
<defs>
<clipPath id="clip0_24_5559">
<rect width="61" height="61" fill="white" transform="translate(0.027832)"/>
</clipPath>
</defs>
</svg>
