<svg width="68" height="68" viewBox="0 0 68 68" fill="none" xmlns="http://www.w3.org/2000/svg">
<path d="M13.1755 57.4521L8.47083 4.6875H60.1655L55.4546 57.4437L34.2868 63.3125L13.1755 57.4521Z" fill="#E44F26"/>
<path d="M34.3181 58.8277L51.4241 54.0853L55.4482 9.00269H34.3181V58.8277Z" fill="#F1662A"/>
<path d="M34.3181 28.5709H25.7547L25.1642 21.9442H34.3181V15.4724H18.0916L18.2465 17.2102L19.8356 35.0427H34.3181V28.5709ZM34.3181 45.3774L34.2888 45.3858L27.0821 43.4407L26.6215 38.2796H20.1246L21.0312 48.4385L34.2888 52.1193L34.3181 52.1109V45.3774Z" fill="#EBEBEB"/>
<path d="M34.295 28.5709V35.0427H42.2639L41.5143 43.4365L34.295 45.3837V52.1172L47.5631 48.4385L47.6594 47.3456L49.1795 30.3087L49.3386 28.5709H34.295ZM34.295 15.4724V21.9442H49.927L50.0568 20.4911L50.352 17.2102L50.5069 15.4724H34.295Z" fill="white"/>
</svg>
