<svg width="71" height="69" viewBox="0 0 71 69" fill="none" xmlns="http://www.w3.org/2000/svg">
<g clip-path="url(#clip0_24_5727)">
<path d="M25.9515 53.3615C25.9515 53.3615 23.2765 54.8948 27.8552 55.4137C33.4022 56.0375 36.2371 55.948 42.3499 54.8076C42.3499 54.8076 43.9571 55.8009 46.2015 56.6612C32.4982 62.4503 15.1883 56.3259 25.9515 53.3615Z" fill="#5382A1"/>
<path d="M24.2774 45.8071C24.2774 45.8071 21.2771 47.9963 25.8592 48.4634C31.7846 49.066 36.4641 49.1153 44.5614 47.5784C44.5614 47.5784 45.6813 48.6976 47.4424 49.3096C30.8743 54.0852 12.4204 49.6862 24.2774 45.8071Z" fill="#5382A1"/>
<path d="M38.3935 32.9924C41.7699 36.8243 37.5063 40.2725 37.5063 40.2725C37.5063 40.2725 46.0798 35.9098 42.1424 30.4467C38.465 25.3521 35.6449 22.8207 50.9117 14.093C50.9117 14.093 26.9478 19.9926 38.3935 32.9924Z" fill="#E76F00"/>
<path d="M56.5171 58.9492C56.5171 58.9492 58.4967 60.557 54.337 61.8008C46.4273 64.1627 21.4159 64.8759 14.4679 61.8949C11.9702 60.8238 16.654 59.3375 18.1274 59.0256C19.6639 58.6972 20.542 58.7584 20.542 58.7584C17.7644 56.8296 2.58849 62.5456 12.8334 64.1826C40.7728 68.6488 63.7642 62.1714 56.5171 58.9492Z" fill="#5382A1"/>
<path d="M27.2382 37.9799C27.2382 37.9799 14.5158 40.9585 22.7329 42.0401C26.2024 42.498 33.1187 42.3944 39.5612 41.8623C44.8263 41.4245 50.113 40.4937 50.113 40.4937C50.113 40.4937 48.2565 41.2774 46.9133 42.1815C33.994 45.5307 9.03621 43.9726 16.2212 40.5467C22.2976 37.6514 27.2382 37.9799 27.2382 37.9799Z" fill="#5382A1"/>
<path d="M50.0605 50.5545C63.1936 43.8275 57.1213 37.363 52.883 38.2339C51.8442 38.447 51.381 38.6317 51.381 38.6317C51.381 38.6317 51.7666 38.0362 52.5032 37.7784C60.888 34.8727 67.3364 46.3485 49.7965 50.8935C49.7965 50.8937 49.9997 50.7146 50.0605 50.5545Z" fill="#5382A1"/>
<path d="M42.1427 0C42.1427 0 49.416 7.17184 35.2443 18.2001C23.88 27.0467 32.6529 32.0907 35.2395 37.8538C28.606 31.9542 23.7379 26.7608 27.0038 21.9273C31.7974 14.8321 45.0773 11.392 42.1427 0Z" fill="#E76F00"/>
<path d="M28.5284 68.7831C41.1345 69.5786 60.4927 68.3418 60.9512 62.4622C60.9512 62.4622 60.0699 64.6911 50.5329 66.4612C39.7733 68.4571 26.5028 68.2241 18.632 66.9449C18.6321 66.9448 20.2432 68.2594 28.5284 68.7831Z" fill="#5382A1"/>
</g>
<defs>
<clipPath id="clip0_24_5727">
<rect width="70" height="69" fill="white" transform="translate(0.027832)"/>
</clipPath>
</defs>
</svg>
