<svg width="30" height="65" viewBox="0 0 30 65" fill="none" xmlns="http://www.w3.org/2000/svg">
<g clip-path="url(#clip0_24_5310)">
<path d="M20.7354 7.63325C18.0375 4.44632 15.7142 1.20959 15.2396 0.537347C15.1896 0.487551 15.1147 0.487551 15.0647 0.537347C14.5901 1.20959 12.2668 4.44632 9.56886 7.63325C-13.5885 37.0376 13.2161 56.8813 13.2161 56.8813L13.4409 57.0306C13.6408 60.0932 14.1404 64.5 14.1404 64.5H15.1396H16.1389C16.1389 64.5 16.6385 60.118 16.8384 57.0306L17.0632 56.8565C17.0882 56.8565 43.8928 37.0376 20.7354 7.63325ZM15.1396 56.433C15.1396 56.433 13.9406 55.4123 13.6158 54.8893V54.8397L15.0647 22.8209C15.0647 22.7213 15.2146 22.7213 15.2146 22.8209L16.6635 54.8397V54.8893C16.3387 55.4123 15.1396 56.433 15.1396 56.433Z" fill="#00684A"/>
</g>
<defs>
<clipPath id="clip0_24_5310">
<rect width="29.7674" height="64" fill="white" transform="translate(0.144043 0.5)"/>
</clipPath>
</defs>
</svg>
