<svg width="63" height="63" viewBox="0 0 63 63" fill="none" xmlns="http://www.w3.org/2000/svg">
<g id="Group 25">
<path id="Vector" d="M57.1341 48.3997C53.7593 48.3143 51.1436 48.6569 48.9499 49.5989C48.317 49.8556 47.3044 49.8559 47.22 50.6696C47.5576 51.0122 47.5998 51.569 47.8951 52.0398C48.4019 52.8961 49.2872 54.0525 50.0888 54.6523C50.9746 55.3373 51.8609 56.0223 52.7886 56.6219C54.4341 57.6498 56.2905 58.2491 57.8935 59.277C58.822 59.8761 59.7495 60.6474 60.6777 61.2896C61.1418 61.6317 61.4369 62.189 62.0278 62.4029V62.2747C61.7323 61.889 61.6479 61.3324 61.3528 60.9042C60.9313 60.4759 60.5089 60.0904 60.087 59.6622C58.8637 57.9924 57.3451 56.5362 55.6998 55.3373C54.3499 54.3951 51.3965 53.1105 50.8483 51.5259C50.8483 51.5259 50.8058 51.4833 50.7639 51.4405C51.6919 51.3548 52.7886 51.0122 53.6749 50.7552C55.1091 50.3695 56.4168 50.4555 57.8935 50.07C58.5684 49.8987 59.2434 49.6846 59.9183 49.4704V49.0852C59.1593 48.3143 58.6108 47.2867 57.8092 46.5586C55.6576 44.674 53.2949 42.8329 50.8483 41.2913C49.5403 40.4348 47.8527 39.878 46.4606 39.1502C45.9548 38.893 45.1107 38.7647 44.8156 38.3364C44.0559 37.3945 43.634 36.1527 43.0858 35.0392C41.8627 32.6837 40.6811 30.0717 39.6263 27.5882C38.8673 25.9179 38.4032 24.2476 37.475 22.7063C33.1298 15.4264 28.4048 11.0156 21.1488 6.69025C19.5877 5.79111 17.7315 5.40566 15.7488 4.9348C14.6945 4.89173 13.6394 4.80632 12.5849 4.76325C11.9098 4.46345 11.2348 3.64997 10.6441 3.26452C8.23988 1.72273 2.03796 -1.61709 0.266155 2.79367C-0.873018 5.57697 1.95382 8.31745 2.92374 9.73101C3.64148 10.7158 4.56921 11.8291 5.07551 12.9426C5.37085 13.6702 5.45499 14.4416 5.75033 15.2122C6.42564 17.0959 7.05803 19.1947 7.94429 20.9506C8.4084 21.8498 8.91446 22.7917 9.50514 23.6055C9.84267 24.0763 10.4331 24.2907 10.5599 25.0613C9.96949 25.9179 9.92706 27.2027 9.58928 28.2732C8.07063 33.1122 8.66155 39.1073 10.8128 42.6616C11.4877 43.7318 13.0909 46.0878 15.2425 45.1881C17.1411 44.4175 16.7192 41.9766 17.2672 39.8354C17.3942 39.321 17.3099 38.9789 17.5628 38.6362V38.7221C18.1534 39.9208 18.7439 41.0774 19.2924 42.2763C20.6003 44.3744 22.8782 46.5586 24.7766 48.0148C25.7894 48.7852 26.5908 50.1128 27.8565 50.5839V50.4552H27.7719C27.5188 50.0698 27.139 49.8987 26.8017 49.5986C26.0425 48.8282 25.1985 47.886 24.608 47.0295C22.8365 44.6311 21.2751 41.9763 19.8831 39.2356C19.2082 37.9084 18.6173 36.4523 18.0691 35.1249C17.8157 34.6104 17.8157 33.84 17.394 33.5833C16.7611 34.5253 15.8331 35.339 15.369 36.4951C14.5679 38.3364 14.4833 40.6061 14.1879 42.9611C14.0192 43.0044 14.1033 42.9611 14.0189 43.0472C12.6693 42.7041 12.2052 41.2913 11.6986 40.0921C10.4329 37.0519 10.2219 32.17 11.3191 28.6586C11.6145 27.7592 12.8802 24.9331 12.3739 24.0766C12.1208 23.2628 11.2767 22.7917 10.8128 22.1496C10.2646 21.3358 9.67366 20.3085 9.29418 19.4088C8.28158 17.0107 7.77528 14.3557 6.67855 11.9576C6.17225 10.844 5.28671 9.68818 4.56921 8.66032C3.76781 7.50422 2.88179 6.69025 2.24892 5.32001C2.0382 4.84915 1.74262 4.07825 2.08015 3.56432C2.16453 3.2217 2.33306 3.09346 2.67083 3.0078C3.21932 2.53645 4.78041 3.13604 5.32842 3.39301C6.8895 4.03493 8.1972 4.63501 9.50514 5.53414C10.0956 5.96242 10.7285 6.77615 11.4877 6.99029H12.3737C13.7238 7.28983 15.2422 7.07594 16.508 7.46114C18.7441 8.18897 20.7688 9.25966 22.5831 10.416C28.1097 13.9702 32.6654 19.0234 35.7454 25.0613C36.2517 26.0459 36.4624 26.9458 36.9265 27.9731C37.8128 30.0717 38.9095 32.2128 39.7951 34.2683C40.6811 36.2807 41.5247 38.3365 42.7904 40.0067C43.4233 40.9056 45.9543 41.377 47.0935 41.8481C47.9373 42.2333 49.2452 42.5761 50.0044 43.047C51.4387 43.9459 52.873 44.9742 54.2231 45.9588C54.8982 46.4727 57.0073 47.5434 57.1341 48.3997Z" fill="white"/>
<path id="Vector_2" d="M14.1031 11.1864C13.3861 11.1864 12.8801 11.2725 12.3738 11.4008V11.4864H12.4582C12.7959 12.1717 13.3861 12.6428 13.8078 13.2421C14.1456 13.9271 14.4407 14.6126 14.7785 15.2979C14.8204 15.2548 14.8626 15.2122 14.8626 15.2122C15.4535 14.7837 15.7486 14.0987 15.7486 13.0708C15.4955 12.7713 15.4533 12.4715 15.2423 12.1717C14.9894 11.7432 14.4407 11.5293 14.1031 11.1864Z" fill="white"/>
</g>
</svg>
