<svg width="57" height="64" viewBox="0 0 57 64" fill="none" xmlns="http://www.w3.org/2000/svg">
<g clip-path="url(#clip0_24_5289)">
<path d="M28.4176 64C27.5596 64 26.7589 63.7668 26.0153 63.3586L18.408 58.7517C17.264 58.1102 17.8359 57.877 18.1792 57.7603C19.7235 57.2355 20.0095 57.1189 21.6111 56.1859C21.7826 56.0692 22.0114 56.1275 22.183 56.2442L28.0172 59.8014C28.246 59.918 28.532 59.918 28.7036 59.8014L51.5255 46.3307C51.7543 46.214 51.8687 45.9808 51.8687 45.6892V18.806C51.8687 18.5145 51.7543 18.2812 51.5255 18.1646L28.7036 4.75223C28.4748 4.63561 28.1888 4.63561 28.0172 4.75223L5.19525 18.1646C4.96646 18.2812 4.85206 18.5728 4.85206 18.806V45.6892C4.85206 45.9224 4.96646 46.214 5.19525 46.3307L11.4298 50.0045C14.8045 51.7539 16.9208 49.7129 16.9208 47.6719V21.1386C16.9208 20.7888 17.2068 20.4389 17.6072 20.4389H20.5243C20.8675 20.4389 21.2106 20.7305 21.2106 21.1386V47.6719C21.2106 52.2788 18.7511 54.9613 14.4613 54.9613C13.1458 54.9613 12.1162 54.9613 9.19908 53.5034L3.19332 50.0045C1.70618 49.1297 0.791016 47.4969 0.791016 45.7475V18.8644C0.791016 17.115 1.70618 15.4822 3.19332 14.6074L26.0153 1.13672C27.4453 0.320313 29.39 0.320313 30.8199 1.13672L53.6418 14.6074C55.129 15.4822 56.0442 17.115 56.0442 18.8644V45.7475C56.0442 47.4969 55.129 49.1297 53.6418 50.0045L30.8199 63.4752C30.1335 63.7668 29.2756 64 28.4176 64Z" fill="#5FA04E"/>
<path d="M35.51 45.5142C25.5004 45.5142 23.4413 40.849 23.4413 36.8836C23.4413 36.5337 23.7272 36.1839 24.1276 36.1839H27.1019C27.4451 36.1839 27.7311 36.4171 27.7311 36.767C28.1887 39.8576 29.5043 41.3738 35.5672 41.3738C40.3718 41.3738 42.431 40.2658 42.431 37.6417C42.431 36.1255 41.859 35.0175 34.366 34.2594C28.1315 33.6179 24.2421 32.2184 24.2421 27.145C24.2421 22.4215 28.1315 19.6224 34.6521 19.6224C41.9733 19.6224 45.5768 22.1883 46.0344 27.7865C46.0344 27.9615 45.9772 28.1364 45.8628 28.3114C45.7484 28.4279 45.5768 28.5446 45.4052 28.5446H42.3738C42.0877 28.5446 41.8018 28.3114 41.7446 28.0197C41.0582 24.8124 39.2851 23.7627 34.5949 23.7627C29.3326 23.7627 28.7035 25.6289 28.7035 27.0284C28.7035 28.7195 29.4471 29.2444 36.5396 30.1774C43.5749 31.1104 46.8924 32.4517 46.8924 37.4668C46.8924 42.5984 42.7169 45.5142 35.51 45.5142Z" fill="#5FA04E"/>
</g>
<defs>
<clipPath id="clip0_24_5289">
<rect width="56.32" height="64" fill="white" transform="translate(0.158081)"/>
</clipPath>
</defs>
</svg>
