<svg width="71" height="72" viewBox="0 0 71 72" fill="none" xmlns="http://www.w3.org/2000/svg">
<g clip-path="url(#clip0_24_5680)">
<path d="M70.0319 40.4327C72.4814 21.306 58.9389 3.81965 39.7973 1.37646C20.6558 -1.06674 3.05393 12.4406 0.604372 31.5325C-1.84519 50.6243 11.6974 68.1455 30.8389 70.6236C50.0155 73.0668 67.5473 59.5594 70.0319 40.4327Z" fill="#FF6C37"/>
<path d="M47.9509 23.5048L33.1835 38.2338L29.0193 34.0804C43.5417 19.5957 44.9764 20.8522 47.9509 23.5048Z" fill="white"/>
<path d="M33.1836 38.5829C33.0786 38.5829 33.0086 38.548 32.9386 38.4782L28.7394 34.3247C28.5994 34.1851 28.5994 33.9757 28.7394 33.8361C43.5067 19.1071 45.0464 20.5032 48.1609 23.2955C48.2309 23.3653 48.2659 23.4351 48.2659 23.5398C48.2659 23.6445 48.2309 23.7143 48.1609 23.7841L33.3935 38.4782C33.3585 38.548 33.2536 38.5829 33.1836 38.5829ZM29.5092 34.0804L33.1836 37.7452L47.426 23.5398C44.8365 21.2362 43.0868 20.5381 29.5092 34.0804Z" fill="#FF6C37"/>
<path d="M37.4177 42.4572L33.3934 38.4433L48.1608 23.7144C52.1151 27.6933 46.2011 34.1503 37.4177 42.4572Z" fill="white"/>
<path d="M37.4177 42.8061C37.3127 42.8061 37.2427 42.7712 37.1728 42.7014L33.1485 38.6876C33.0785 38.6178 33.0785 38.548 33.0785 38.4432C33.0785 38.3385 33.1135 38.2687 33.1835 38.1989L47.9508 23.4699C48.0908 23.3303 48.3007 23.3303 48.4407 23.4699C49.3506 24.3076 49.8405 25.4943 49.8055 26.7159C49.7355 30.5901 45.3263 35.5114 37.6977 42.7014C37.5927 42.7712 37.4877 42.8061 37.4177 42.8061ZM33.8833 38.4432C36.1229 40.7119 37.0678 41.6194 37.4177 41.9684C43.2967 36.384 49.0006 30.6599 49.0356 26.7159C49.0706 25.8084 48.7207 24.901 48.1258 24.2029L33.8833 38.4432Z" fill="#FF6C37"/>
<path d="M29.0893 34.1851L32.0638 37.1519C32.1337 37.2217 32.1337 37.2915 32.0638 37.3613C32.0288 37.3962 32.0288 37.3962 31.9938 37.3962L25.8349 38.7225C25.5199 38.7574 25.24 38.548 25.17 38.2339C25.135 38.0594 25.205 37.8848 25.31 37.7801L28.8793 34.22C28.9493 34.1502 29.0543 34.1153 29.0893 34.1851Z" fill="white"/>
<path d="M25.7299 39.0715C25.205 39.0715 24.8201 38.6527 24.8201 38.1291C24.8201 37.8848 24.925 37.6405 25.1 37.466L28.6694 33.9059C28.8793 33.7314 29.1593 33.7314 29.3692 33.9059L32.3437 36.8726C32.5537 37.0472 32.5537 37.3613 32.3437 37.5707C32.2737 37.6405 32.2037 37.6754 32.0988 37.7103L25.9399 39.0366C25.8699 39.0366 25.7999 39.0715 25.7299 39.0715ZM28.9843 34.5691L25.5549 37.9895C25.4849 38.0593 25.45 38.1641 25.5199 38.2688C25.5549 38.3735 25.6599 38.4084 25.7649 38.3735L31.5389 37.117L28.9843 34.5691Z" fill="#FF6C37"/>
<path d="M55.7544 15.3376C53.5148 13.1736 49.9105 13.2434 47.7409 15.5121C45.5713 17.7808 45.6413 21.3409 47.9158 23.5049C49.7705 25.2849 52.57 25.599 54.7746 24.2727L50.7853 20.2938L55.7544 15.3376Z" fill="white"/>
<path d="M51.8352 25.4245C48.5108 25.4245 45.8163 22.737 45.8163 19.4213C45.8163 16.1055 48.5108 13.418 51.8352 13.418C53.3749 13.418 54.8796 14.0113 55.9994 15.0933C56.0694 15.1631 56.1044 15.2329 56.1044 15.3376C56.1044 15.4423 56.0694 15.5121 55.9994 15.5819L51.2753 20.2938L54.9846 23.9935C55.1246 24.1331 55.1246 24.3425 54.9846 24.4822C54.9496 24.5171 54.9496 24.5171 54.9146 24.552C54.0048 25.1104 52.92 25.4245 51.8352 25.4245ZM51.8352 14.1509C48.8957 14.1509 46.5162 16.5243 46.5512 19.4562C46.5512 22.388 48.9307 24.7614 51.8702 24.7265C52.675 24.7265 53.4799 24.552 54.2148 24.168L50.5404 20.5381C50.4704 20.4683 50.4355 20.3985 50.4355 20.2938C50.4355 20.1891 50.4704 20.1193 50.5404 20.0495L55.2296 15.3725C54.2848 14.5698 53.095 14.1509 51.8352 14.1509Z" fill="#FF6C37"/>
<path d="M55.8594 15.4424L55.7894 15.3726L50.7853 20.2939L54.7396 24.2379C55.1245 23.9936 55.5094 23.7143 55.8244 23.4002C58.064 21.2013 58.064 17.6412 55.8594 15.4424Z" fill="white"/>
<path d="M54.7746 24.6218C54.6697 24.6218 54.5997 24.5869 54.5297 24.5171L50.5404 20.5382C50.4704 20.4684 50.4354 20.3986 50.4354 20.2939C50.4354 20.1892 50.4704 20.1194 50.5404 20.0496L55.5095 15.0934C55.6495 14.9537 55.8594 14.9537 55.9994 15.0934L56.1044 15.1632C58.449 17.5016 58.449 21.2712 56.1394 23.6445C55.7895 23.9936 55.4045 24.3077 54.9846 24.552C54.8796 24.5869 54.8096 24.6218 54.7746 24.6218ZM51.2753 20.2939L54.8096 23.8191C55.0896 23.6445 55.3695 23.4002 55.5795 23.1908C57.5741 21.2013 57.6791 17.9554 55.7545 15.8612L51.2753 20.2939Z" fill="#FF6C37"/>
<path d="M48.5458 24.1331C47.7059 23.2955 46.3412 23.2955 45.5013 24.1331L32.3087 37.2915L34.5133 39.4904L48.4758 27.2744C49.3856 26.5065 49.4556 25.1453 48.6858 24.2378C48.6158 24.2029 48.5808 24.168 48.5458 24.1331Z" fill="white"/>
<path d="M34.4782 39.8394C34.3733 39.8394 34.3033 39.8045 34.2333 39.7347L32.0287 37.5358C31.8887 37.3962 31.8887 37.1868 32.0287 37.0472L45.2213 23.8888C46.2011 22.9116 47.7759 22.9116 48.7557 23.8888C49.7355 24.8661 49.7355 26.4367 48.7557 27.414C48.7207 27.4489 48.6857 27.4838 48.6507 27.5187L34.6882 39.7347C34.6532 39.8045 34.5832 39.8394 34.4782 39.8394ZM32.7986 37.2915L34.5132 39.0018L48.2308 26.9952C49.0006 26.3669 49.0706 25.2151 48.4407 24.4473C47.8108 23.6794 46.6561 23.6096 45.8862 24.2379C45.8512 24.2728 45.8162 24.3077 45.7462 24.3426L32.7986 37.2915Z" fill="#FF6C37"/>
<path d="M22.1954 52.2648C22.0554 52.3346 21.9855 52.4742 22.0205 52.6138L22.6153 55.1268C22.7553 55.4758 22.5454 55.8947 22.1604 55.9994C21.8805 56.1041 21.5655 55.9994 21.3906 55.79L17.5413 51.9855L30.104 39.4554L34.4432 39.5252L37.3827 42.4571C36.6828 43.0504 32.4486 47.1341 22.1954 52.2648Z" fill="white"/>
<path d="M21.9155 56.3484C21.6356 56.3484 21.3556 56.2437 21.1806 56.0343L17.3663 52.2299C17.2963 52.1601 17.2614 52.0903 17.2614 51.9856C17.2614 51.8809 17.2963 51.8111 17.3663 51.7413L29.9291 39.2112C29.9991 39.1413 30.104 39.1064 30.174 39.1064L34.5132 39.1763C34.6182 39.1763 34.6882 39.2112 34.7582 39.281L37.6977 42.2128C37.7677 42.2826 37.8027 42.3873 37.8027 42.492C37.8027 42.5967 37.7677 42.6665 37.6627 42.7363L37.4177 42.9458C33.7084 46.1917 28.6693 49.4377 22.4054 52.544L23.0003 55.0221C23.1053 55.4759 22.8953 55.9645 22.4754 56.2088C22.2655 56.3135 22.0905 56.3484 21.9155 56.3484ZM18.0662 51.9856L21.6706 55.5457C21.7755 55.7202 21.9855 55.79 22.1605 55.6853C22.3354 55.5806 22.4054 55.3712 22.3004 55.1966L21.7056 52.6836C21.6356 52.3695 21.7755 52.0903 22.0555 51.9507C28.2494 48.8443 33.2535 45.6333 36.9278 42.4571L34.3383 39.8743L30.314 39.8045L18.0662 51.9856Z" fill="#FF6C37"/>
<path d="M14.5669 54.9872L17.5763 51.9856L22.0555 56.4532L14.9168 55.9645C14.6019 55.9296 14.3919 55.6504 14.4269 55.3363C14.4269 55.1967 14.4619 55.057 14.5669 54.9872Z" fill="white"/>
<path d="M22.0555 56.7673L14.8818 56.2787C14.3569 56.2438 14.007 55.79 14.042 55.2665C14.077 55.0571 14.1469 54.8476 14.3219 54.708L17.3314 51.7064C17.4713 51.5668 17.6813 51.5668 17.8213 51.7064L22.3005 56.174C22.4055 56.2787 22.4404 56.4183 22.3705 56.5579C22.3005 56.6975 22.1955 56.7673 22.0555 56.7673ZM17.5763 52.4743L14.8118 55.2316C14.7068 55.3014 14.7068 55.4759 14.8118 55.5457C14.8468 55.5806 14.8818 55.6155 14.9518 55.6155L21.1457 56.0343L17.5763 52.4743Z" fill="#FF6C37"/>
<path d="M28.8792 41.061C28.6693 41.061 28.5293 40.8865 28.5293 40.712C28.5293 40.6073 28.5643 40.5375 28.6343 40.4677L32.0287 37.0821C32.1686 36.9425 32.3786 36.9425 32.5186 37.0821L34.7232 39.281C34.8282 39.3857 34.8632 39.4904 34.8282 39.63C34.7932 39.7347 34.6882 39.8394 34.5482 39.8744L28.9492 41.061C28.9142 41.061 28.8792 41.061 28.8792 41.061ZM32.2736 37.8151L29.964 40.1187L33.7434 39.3159L32.2736 37.8151Z" fill="#FF6C37"/>
<path d="M34.4432 39.5253L30.5939 40.363C30.314 40.4328 30.034 40.2583 29.964 39.979C29.929 39.8045 29.964 39.63 30.104 39.4904L32.2386 37.3613L34.4432 39.5253Z" fill="white"/>
<path d="M30.524 40.712C30.0341 40.712 29.6492 40.3281 29.6492 39.8394C29.6492 39.5951 29.7542 39.3857 29.8941 39.2112L32.0287 37.0821C32.1687 36.9425 32.3787 36.9425 32.5187 37.0821L34.7233 39.281C34.8282 39.3857 34.8632 39.4904 34.8282 39.63C34.7932 39.7347 34.6883 39.8394 34.5483 39.8743L30.699 40.712C30.629 40.712 30.559 40.712 30.524 40.712ZM32.2737 37.8151L30.384 39.6998C30.3141 39.7696 30.314 39.8394 30.349 39.9093C30.384 39.9791 30.454 40.014 30.559 40.014L33.7784 39.3159L32.2737 37.8151Z" fill="#FF6C37"/>
<path d="M55.8945 18.793C55.8245 18.5835 55.5795 18.4788 55.3696 18.5486C55.1596 18.6184 55.0546 18.8628 55.1246 19.0722C55.1246 19.1071 55.1596 19.142 55.1596 19.1769C55.3696 19.5957 55.2996 20.1193 55.0196 20.5032C54.8797 20.6777 54.9147 20.922 55.0546 21.0616C55.2296 21.2012 55.4746 21.1663 55.6145 20.9918C56.1394 20.3287 56.2444 19.491 55.8945 18.793Z" fill="#FF6C37"/>
</g>
<defs>
<clipPath id="clip0_24_5680">
<rect width="70" height="72" fill="white" transform="translate(0.318115)"/>
</clipPath>
</defs>
</svg>
