<svg width="65" height="65" viewBox="0 0 65 65" fill="none" xmlns="http://www.w3.org/2000/svg">
<path d="M53.1838 35.108C51.1332 35.1187 49.3572 35.6107 47.8692 36.3454C47.3252 35.2587 46.7732 34.3027 46.6812 33.592C46.5732 32.7627 46.4478 32.2667 46.5785 31.2787C46.7092 30.2907 47.2812 28.8907 47.2732 28.7854C47.2652 28.68 47.1452 28.1774 45.9625 28.168C44.7798 28.16 43.7678 28.396 43.6492 28.708C43.5305 29.02 43.3025 29.7227 43.1612 30.456C42.9545 31.528 40.7998 35.3534 39.5772 37.3534C39.1772 36.572 38.8372 35.884 38.7665 35.34C38.6585 34.5107 38.5332 34.0147 38.6638 33.0267C38.7945 32.0387 39.3665 30.6387 39.3585 30.5334C39.3505 30.428 39.2305 29.9254 38.0478 29.916C36.8652 29.908 35.8532 30.144 35.7345 30.456C35.6158 30.768 35.4878 31.4974 35.2465 32.204C35.0038 32.9094 32.1412 39.2894 31.3905 40.944C31.0078 41.7867 30.6758 42.464 30.4412 42.9254L30.4398 42.9227C30.4398 42.9227 30.4252 42.9534 30.4012 43.0054C30.1998 43.3987 30.0812 43.616 30.0812 43.616C30.0812 43.616 30.0825 43.6187 30.0852 43.624C29.9252 43.9134 29.7545 44.1814 29.6705 44.1814C29.6118 44.1814 29.4932 43.412 29.6958 42.356C30.1225 40.1427 31.1452 36.692 31.1358 36.572C31.1305 36.5107 31.3265 35.9094 30.4678 35.5947C29.6332 35.2894 29.3358 35.7987 29.2598 35.8C29.1865 35.8014 29.1318 35.98 29.1318 35.98C29.1318 35.98 30.0612 32.0987 27.3585 32.0987C25.6678 32.0987 23.3265 33.948 22.1732 35.624C21.4452 36.0214 19.8865 36.872 18.2345 37.78C17.5998 38.1294 16.9518 38.4854 16.3372 38.824C16.2958 38.7774 16.2532 38.732 16.2105 38.6854C12.9318 35.188 6.87318 32.7147 7.12918 28.012C7.22251 26.3027 7.81718 21.8014 18.7732 16.3427C27.7478 11.8707 34.9332 13.1014 36.1745 15.828C37.9478 19.7254 32.3345 26.9667 23.0145 28.012C19.4638 28.4107 17.5932 27.0334 17.1278 26.5214C16.6385 25.9814 16.5652 25.9574 16.3825 26.0587C16.0852 26.224 16.2732 26.7 16.3825 26.984C16.6612 27.708 17.8025 28.992 19.7492 29.632C21.4625 30.1947 25.6318 30.5027 30.6732 28.552C36.3212 26.368 40.7305 20.2907 39.4345 15.212C38.1172 10.0467 29.5518 8.34803 21.4452 11.228C16.6145 12.9427 11.3918 15.6334 7.63584 19.1454C3.17051 23.3214 2.45851 26.9574 2.75184 28.476C3.79451 33.8734 11.2332 37.388 14.2118 39.992C14.0652 40.0734 13.9265 40.1494 13.8012 40.2187C12.3078 40.9574 6.63718 43.9254 5.21851 47.06C3.60918 50.616 5.47451 53.168 6.70918 53.512C10.5345 54.576 14.4598 52.6614 16.5705 49.5147C18.6798 46.3694 18.4225 42.272 17.4545 40.4027C17.4425 40.38 17.4292 40.3574 17.4172 40.3334C17.8025 40.1054 18.1958 39.8734 18.5852 39.644C19.3452 39.1974 20.0918 38.7814 20.7385 38.4294C20.3758 39.4214 20.1105 40.612 19.9732 42.3307C19.8105 44.3494 20.6385 46.9587 21.7212 47.9854C22.1985 48.4374 22.7718 48.448 23.1345 48.448C24.3945 48.448 24.9692 47.4 25.6025 46.16C26.3785 44.64 27.0678 42.8694 27.0678 42.8694C27.0678 42.8694 26.2038 47.6507 28.5585 47.6507C29.4172 47.6507 30.2798 46.5374 30.6652 45.9707C30.6665 45.9774 30.6665 45.98 30.6665 45.98C30.6665 45.98 30.6892 45.9427 30.7332 45.8694C30.8225 45.7334 30.8732 45.6467 30.8732 45.6467C30.8732 45.6467 30.8745 45.6374 30.8772 45.6214C31.2225 45.0227 31.9878 43.6574 33.1345 41.4054C34.6172 38.496 36.0385 34.8507 36.0385 34.8507C36.0385 34.8507 36.1705 35.7414 36.6038 37.216C36.8585 38.0827 37.3998 39.0414 37.8278 39.9614C37.4838 40.4387 37.2732 40.712 37.2732 40.712C37.2732 40.712 37.2745 40.7174 37.2785 40.7267C37.0038 41.092 36.6958 41.4854 36.3732 41.8694C35.2025 43.2627 33.8092 44.8547 33.6225 45.3134C33.4025 45.8547 33.4545 46.252 33.8798 46.5734C34.1905 46.8067 34.7425 46.844 35.3198 46.8054C36.3718 46.7347 37.1105 46.4734 37.4758 46.3147C38.0452 46.1134 38.7078 45.7974 39.3292 45.34C40.4772 44.496 41.1692 43.2894 41.1025 41.6894C41.0652 40.808 40.7852 39.9347 40.4292 39.1107C40.5332 38.9614 40.6372 38.8094 40.7425 38.6574C42.5518 36.012 43.9558 33.1054 43.9558 33.1054C43.9558 33.1054 44.0878 33.996 44.5212 35.4707C44.7398 36.216 45.1732 37.0307 45.5625 37.828C43.8612 39.2107 42.8065 40.8174 42.4398 41.8707C41.7625 43.82 42.2932 44.7027 43.2878 44.904C43.7385 44.9947 44.3758 44.788 44.8545 44.5854C45.4505 44.388 46.1665 44.0587 46.8358 43.5667C47.9838 42.7227 49.0878 41.5414 49.0212 39.9427C48.9905 39.2147 48.7932 38.492 48.5252 37.7987C49.9678 37.1974 51.8345 36.864 54.2132 37.1414C59.3158 37.7374 60.3158 40.9227 60.1252 42.256C59.9332 43.5894 58.8638 44.3227 58.5052 44.544C58.1478 44.7654 58.0385 44.8427 58.0678 45.0067C58.1118 45.2454 58.2772 45.2374 58.5825 45.1854C59.0025 45.1147 61.2612 44.1014 61.3585 41.64C61.4798 38.512 58.4865 35.08 53.1838 35.108ZM13.8545 48.3667C12.1638 50.2107 9.80384 50.9067 8.79051 50.32C7.69718 49.6867 8.13051 46.972 10.2038 45.0147C11.4678 43.8227 13.0998 42.724 14.1825 42.048C14.4292 41.9 14.7905 41.6827 15.2305 41.4187C15.3038 41.3774 15.3452 41.3547 15.3452 41.3547L15.3438 41.352C15.4292 41.3014 15.5158 41.2494 15.6052 41.1947C16.3612 43.98 15.6292 46.432 13.8545 48.3667ZM26.1678 39.9974C25.5798 41.432 24.3478 45.104 23.5972 44.9067C22.9532 44.7374 22.5612 41.9467 23.4692 39.2C23.9252 37.8174 24.9012 36.1654 25.4745 35.524C26.3972 34.492 27.4132 34.1547 27.6598 34.5734C27.9732 35.1067 26.5372 39.0974 26.1678 39.9974ZM36.3398 44.8507C36.0905 44.9814 35.8612 45.0627 35.7558 45C35.6772 44.9534 35.8585 44.7814 35.8585 44.7814C35.8585 44.7814 37.1305 43.412 37.6318 42.7894C37.9238 42.4267 38.2612 41.996 38.6292 41.516C38.6318 41.564 38.6332 41.612 38.6332 41.6587C38.6305 43.2987 37.0465 44.4054 36.3398 44.8507ZM44.1758 43.064C43.9892 42.932 44.0212 42.504 44.6332 41.1694C44.8732 40.6454 45.4225 39.764 46.3745 38.9214C46.4852 39.268 46.5518 39.6 46.5505 39.9094C46.5385 41.9734 45.0665 42.744 44.1758 43.064Z" fill="#F06292"/>
</svg>
