<svg width="88" height="53" viewBox="0 0 88 53" fill="none" xmlns="http://www.w3.org/2000/svg">
<g clip-path="url(#clip0_24_5318)">
<mask id="mask0_24_5318" style="mask-type:luminance" maskUnits="userSpaceOnUse" x="0" y="0" width="88" height="53">
<path d="M0.027832 0H87.0278V52.0364H0.027832V0Z" fill="white"/>
</mask>
<g mask="url(#mask0_24_5318)">
<path fill-rule="evenodd" clip-rule="evenodd" d="M43.5278 0C31.9278 0 24.6778 5.78182 21.7778 17.3455C26.1278 11.5636 31.2028 9.39545 37.0028 10.8409C40.3121 11.6648 42.6772 14.0595 45.2952 16.7078C49.5598 21.0233 54.4963 26.0182 65.2778 26.0182C76.8778 26.0182 84.1278 20.2364 87.0278 8.67273C82.6778 14.4545 77.6028 16.6227 71.8028 15.1773C68.4936 14.3534 66.1285 11.9587 63.5104 9.31033C59.2458 4.99485 54.3094 0 43.5278 0ZM21.7778 26.0182C10.1778 26.0182 2.92783 31.8 0.027832 43.3636C4.37783 37.5818 9.45283 35.4136 15.2528 36.8591C18.5621 37.6846 20.9272 40.0776 23.5452 42.726C27.8098 47.0415 32.7463 52.0364 43.5278 52.0364C55.1278 52.0364 62.3778 46.2545 65.2778 34.6909C60.9278 40.4727 55.8528 42.6409 50.0528 41.1955C46.7436 40.3715 44.3785 37.9769 41.7604 35.3285C37.4958 31.013 32.5594 26.0182 21.7778 26.0182Z" fill="#38BDF8"/>
</g>
</g>
<defs>
<clipPath id="clip0_24_5318">
<rect width="87" height="53" fill="white" transform="translate(0.027832)"/>
</clipPath>
</defs>
</svg>
